<?xml version="1.0" encoding="UTF-8"?>
<!DOCTYPE svg PUBLIC "-//W3C//DTD SVG 1.1//EN" "http://www.w3.org/Graphics/SVG/1.1/DTD/svg11.dtd">
<!-- Creator: CorelDRAW 2019 (64-Bit) -->
<svg class=" d-inline-block" xmlns="http://www.w3.org/2000/svg" xml:space="preserve" width="25px" height="25px" version="1.1" style="shape-rendering:geometricPrecision; text-rendering:geometricPrecision; image-rendering:optimizeQuality; fill-rule:evenodd; clip-rule:evenodd"
viewBox="0 0 8500 11000"
 xmlns:xlink="http://www.w3.org/1999/xlink">
 <defs>
  <style type="text/css">
   <![CDATA[
    .fil2 {fill:#373435;fill-rule:nonzero}
    .fil3 {fill:#373435;fill-rule:nonzero}
   ]]>
  </style>
 </defs>
 <g id="Layer_x0020_1">
  <metadata id="CorelCorpID_0Corel-Layer"/>
  <path class="fil2" d="M1251.52 8181.96c-452.72,0 -772.27,-87.53 -956.34,-262.44 -123.07,-112.98 -185.15,-299.07 -185.15,-557.48l0 -2537.49 537.15 0 0 2302.37c0,248.31 41.75,399.8 125.09,455.82 51.84,33.53 211.69,54.94 479.25,62.08l0 537.15zm2215.93 -1008.32c0,308.23 -76.35,560.58 -228.92,756.91 -166.84,216.66 -399.8,324.52 -699.95,324.52 -228.92,0 -430.37,-67.2 -604.34,-201.45 -172.9,75.27 -476.15,117.96 -908.54,128.2l0 -537.15c305.27,0 483.29,-29.49 535.13,-89.55 15.22,-19.39 26.39,-156.75 32.59,-410.97 18.31,-736.57 337.72,-1104.86 960.37,-1104.86 298.14,0 530.01,119.04 697,357.11 144.49,208.59 216.66,468.07 216.66,777.24zm-470.09 -31.51c0,-385.66 -153.65,-577.95 -459.85,-577.95 -312.41,0 -468.07,199.43 -468.07,599.22 0,369.37 155.66,554.52 468.07,554.52 306.21,0 459.85,-192.29 459.85,-575.8zm3387.13 1039.83c-694.83,0 -124.01,366.06 -749.77,972.63 -263.53,255.31 -592.09,382.56 -987.85,382.56l-691.87 0 -74.33 -537.15 676.52 0c254.37,0 465.91,-73.26 634.92,-220.84 168.86,-146.51 258.41,-345.94 268.65,-598.29 -442.63,0 -768.09,-61 -976.67,-182.05 -271.6,-158.76 -408.01,-443.56 -408.01,-854.68 0,-448.68 107.86,-763.11 324.52,-944.22 125.09,-106.78 336.78,-160.78 634.92,-160.78 426.33,0 712.2,177.08 857.63,530.01 83.49,206.57 129.28,564.62 137.35,1075.38l354.01 0 0 537.15 0 0.29zm-906.52 -537.15l0 -508.74c0,-149.61 -35.55,-276.72 -106.78,-384.58 -81.33,-121.06 -194.31,-181.11 -336.78,-181.11 -170.88,0 -286.96,58.04 -345.94,172.89 -41.74,83.49 -63.02,220.84 -63.02,413.13 0,226.9 94.67,371.39 282.78,434.41 101.8,35.55 291.93,53.86 569.74,53.86l0 0.15zm2956.47 -2012.46c0,91.57 -33.53,167.92 -99.64,228.92 -67.2,62.08 -147.59,92.65 -241.18,92.65 -103.82,0 -191.21,-26.39 -262.44,-80.39 -78.37,-62.08 -117.02,-142.47 -117.02,-241.17 0,-196.33 115.94,-295.04 346.87,-295.04 249.25,0 373.41,98.7 373.41,295.04zm-1025.56 0c0,91.57 -33.52,167.92 -99.64,228.92 -67.2,62.08 -147.59,92.65 -241.17,92.65 -103.83,0 -191.21,-26.39 -262.44,-80.39 -78.37,-62.08 -117.02,-142.47 -117.02,-241.17 0,-196.33 115.94,-295.04 346.87,-295.04 249.25,0 373.41,98.7 373.41,295.04zm714.22 1676.76c0,232.02 -68.13,432.39 -205.48,601.24 -146.51,181.12 -332.74,271.6 -559.64,271.6l-1145.67 0 0 -537.15 977.75 0c148.53,0 252.35,-30.57 309.31,-90.49 58.04,-61 86.45,-167.92 86.45,-320.48l0 -735.64 537.15 0 0 810.91 0.14 0z"/>
  <path class="fil3" d="M2370.52 1735.27c0,100.72 -36.63,186.23 -108.8,257.47 -72.17,71.24 -159.7,106.78 -262.44,106.78 -265.55,0 -397.78,-121.06 -397.78,-364.25 0,-212.63 127.11,-319.41 380.55,-319.41 259.49,0 388.62,106.78 388.62,319.41l-0.14 0zm1520.02 1723.48c0,419.19 -119.04,762.03 -358.19,1028.65 -248.31,275.78 -578.89,414.07 -992.03,414.07l-826.13 0c-368.29,0 -676.52,-140.45 -927.93,-420.13 -242.11,-269.58 -363.17,-591.15 -363.17,-962.54l0 -1120.22 525.04 0 0 1179.2c0,226.9 88.46,416.09 265.54,568.8 168.86,145.43 369.37,217.74 600.31,217.74l691.87 0c232.96,0 432.39,-73.26 598.29,-220.84 165.9,-146.51 249.25,-335.7 249.25,-565.7l0 -1715.41 537.15 0 0 1596.37z"/>
 </g>
</svg>
